<svg width="430" height="463" viewBox="0 0 430 463" fill="none" xmlns="http://www.w3.org/2000/svg">
<path fill-rule="evenodd" clip-rule="evenodd" d="M-275 263.673L-270.913 288.464C-267.643 313.255 -259.468 362.837 -252.11 362.837C-244.753 362.837 -236.578 313.255 -229.22 271.937C-221.863 230.619 -214.505 197.565 -206.33 164.51C-198.973 131.456 -191.615 98.4013 -183.44 98.4013C-176.083 98.4013 -168.725 131.456 -160.55 156.247C-153.193 181.037 -145.835 197.565 -138.478 214.092C-130.303 230.619 -122.945 247.146 -115.588 247.146C-107.413 247.146 -100.055 230.619 -92.6975 205.828C-84.5225 181.037 -77.165 147.983 -69.8075 156.247C-62.45 164.51 -54.275 214.092 -46.9175 205.828C-39.56 197.565 -31.385 131.456 -24.0275 123.192C-16.67 114.929 -8.495 164.51 -1.1375 205.828C6.22 247.146 13.5775 280.201 21.7525 288.464C29.11 296.728 36.4675 280.201 44.6425 288.464C52 296.728 59.3575 329.782 67.5325 313.255C74.89 296.728 82.2475 230.619 90.4225 189.301C97.78 147.983 105.137 131.456 112.495 139.719C120.67 147.983 128.027 181.037 135.385 230.619C143.56 280.201 150.917 346.31 158.275 354.573C166.45 362.837 173.807 313.255 181.165 304.991C188.522 296.728 196.697 329.782 204.055 304.991C211.412 280.201 219.587 197.565 226.945 131.456C234.302 65.3469 242.477 15.7653 249.835 65.3469C257.192 114.929 264.55 263.673 272.725 296.728C280.082 329.782 287.44 247.146 295.615 247.146C302.972 247.146 310.33 329.782 318.505 329.782C325.862 329.782 333.22 247.146 340.577 238.883C348.752 230.619 356.11 296.728 363.467 280.201C371.642 263.673 379 164.51 386.357 114.929C394.532 65.3469 401.89 65.3469 409.247 98.4013C417.422 131.456 424.78 197.565 432.137 255.41C439.495 313.255 447.67 362.837 455.027 346.31C462.385 329.782 470.56 247.146 477.917 181.037C485.275 114.929 493.45 65.3469 500.807 32.2925C508.165 -0.76195 515.522 -17.2892 523.697 32.2925C531.055 81.8741 538.412 197.565 546.587 247.146C553.945 296.728 561.302 280.201 569.477 238.883C576.835 197.565 584.192 131.456 591.55 98.4013C599.725 65.3469 607.082 65.3469 614.44 57.0833C622.615 48.8197 629.972 32.2925 637.33 32.2925C645.505 32.2925 652.862 48.8197 660.22 114.929C667.577 181.037 675.752 296.728 683.11 313.255C690.467 329.782 698.642 247.146 701.912 205.828L706 164.51V462H701.912C698.642 462 690.467 462 683.11 462C675.752 462 667.577 462 660.22 462C652.862 462 645.505 462 637.33 462C629.972 462 622.615 462 614.44 462C607.082 462 599.725 462 591.55 462C584.192 462 576.835 462 569.477 462C561.302 462 553.945 462 546.587 462C538.412 462 531.055 462 523.697 462C515.522 462 508.165 462 500.807 462C493.45 462 485.275 462 477.917 462C470.56 462 462.385 462 455.027 462C447.67 462 439.495 462 432.137 462C424.78 462 417.422 462 409.247 462C401.89 462 394.532 462 386.357 462C379 462 371.642 462 363.467 462C356.11 462 348.752 462 340.577 462C333.22 462 325.862 462 318.505 462C310.33 462 302.972 462 295.615 462C287.44 462 280.082 462 272.725 462C264.55 462 257.192 462 249.835 462C242.477 462 234.302 462 226.945 462C219.587 462 211.412 462 204.055 462C196.697 462 188.522 462 181.165 462C173.807 462 166.45 462 158.275 462C150.917 462 143.56 462 135.385 462C128.027 462 120.67 462 112.495 462C105.137 462 97.78 462 90.4225 462C82.2475 462 74.89 462 67.5325 462C59.3575 462 52 462 44.6425 462C36.4675 462 29.11 462 21.7525 462C13.5775 462 6.22 462 -1.1375 462C-8.495 462 -16.67 462 -24.0275 462C-31.385 462 -39.56 462 -46.9175 462C-54.275 462 -62.45 462 -69.8075 462C-77.165 462 -84.5225 462 -92.6975 462C-100.055 462 -107.413 462 -115.588 462C-122.945 462 -130.303 462 -138.478 462C-145.835 462 -153.193 462 -160.55 462C-168.725 462 -176.083 462 -183.44 462C-191.615 462 -198.973 462 -206.33 462C-214.505 462 -221.863 462 -229.22 462C-236.578 462 -244.753 462 -252.11 462C-259.468 462 -267.643 462 -270.913 462H-275V263.673Z" fill="url(#paint0_linear_193_2326)" stroke="url(#paint1_linear_193_2326)" stroke-width="1.19108"/>
<defs>
<linearGradient id="paint0_linear_193_2326" x1="215.5" y1="1" x2="215.5" y2="462" gradientUnits="userSpaceOnUse">
<stop stop-color="#316155" stop-opacity="0.48"/>
<stop offset="1" stop-color="#464646" stop-opacity="0"/>
</linearGradient>
<linearGradient id="paint1_linear_193_2326" x1="215.5" y1="1" x2="215.5" y2="462" gradientUnits="userSpaceOnUse">
<stop stop-color="#02D1FF"/>
<stop offset="1" stop-color="white" stop-opacity="0"/>
</linearGradient>
</defs>
</svg>
